<?xml version="1.0" encoding="iso-8859-1"?>
<!-- Generator: Adobe Illustrator 19.0.0, SVG Export Plug-In . SVG Version: 6.00 Build 0)  -->
<svg version="1.1" id="Layer_1" xmlns="http://www.w3.org/2000/svg" xmlns:xlink="http://www.w3.org/1999/xlink" x="0px" y="0px"
	 viewBox="0 0 512.001 512.001" style="enable-background:new 0 0 512.001 512.001;" xml:space="preserve">
<g>
	<g>
		<g>
			<path d="M247.467,256.069v-0.068c0-2.261,0.905-4.437,2.5-6.033L483.081,16.854C469.94,6.333,453.308,0.001,435.2,0.001H268.664
				L20.6,255.813l263.945,256.188H435.2c20.122,0,38.4-7.834,52.105-20.54L250.07,262.136
				C248.431,260.549,247.484,258.365,247.467,256.069z"/>
			<path d="M495.145,28.922l-226.97,226.97l230.349,222.677c8.491-12.356,13.474-27.281,13.474-43.366v-358.4
				C511.999,58.695,505.667,42.063,495.145,28.922z"/>
			<path d="M0.003,256v179.2c0,42.342,34.449,76.8,76.8,76.8h183.236L2.597,262.127C0.873,260.446,0.003,258.227,0.003,256z"/>
			<path d="M244.892,0H76.802c-42.351,0-76.8,34.458-76.8,76.8V256c0-2.142,0.802-4.284,2.406-5.939L244.892,0z"/>
		</g>
	</g>
</g>
<g>
</g>
<g>
</g>
<g>
</g>
<g>
</g>
<g>
</g>
<g>
</g>
<g>
</g>
<g>
</g>
<g>
</g>
<g>
</g>
<g>
</g>
<g>
</g>
<g>
</g>
<g>
</g>
<g>
</g>
</svg>
