<svg xmlns="http://www.w3.org/2000/svg" viewBox="0 0 155.06 15.38">
  <title>Ресурс 3</title>
  <g id="Слой_2" data-name="Слой 2">
    <g id="_1" data-name="1">
      <g>
        <path d="M0,9.69V5.8A3.25,3.25,0,0,1,.31,4.36a3.46,3.46,0,0,1,2-1.78,4.45,4.45,0,0,1,1.46-.24,5.57,5.57,0,0,1,1.62.23,3.89,3.89,0,0,1,1.36.72l-.71,1.1a3,3,0,0,0-1-.56,4,4,0,0,0-1.22-.2,2.88,2.88,0,0,0-.88.14,2.19,2.19,0,0,0-.77.43A2.12,2.12,0,0,0,1.62,5a2.75,2.75,0,0,0-.21,1.13V9.43a2.66,2.66,0,0,0,.22,1.12,2.13,2.13,0,0,0,.56.76,2.28,2.28,0,0,0,.76.43,2.66,2.66,0,0,0,.84.14A4.67,4.67,0,0,0,5,11.71a3,3,0,0,0,1.12-.57l.68,1.09a4.35,4.35,0,0,1-1.28.67,5.15,5.15,0,0,1-1.71.28,4.53,4.53,0,0,1-1.47-.24,3.53,3.53,0,0,1-1.22-.69,3.26,3.26,0,0,1-.82-1.1A3.41,3.41,0,0,1,0,9.69Zm9.62,3.38V2.44H16.7V3.73H11V7.09h4.86V8.39H11v3.42H16.7v1.26Zm9.88,0V2.44h4.4a2.91,2.91,0,0,1,1.33.29,2.87,2.87,0,0,1,.94.74,3.16,3.16,0,0,1,.56,1,3.58,3.58,0,0,1,.19,1.14,3.21,3.21,0,0,1-.21,1.13,3.47,3.47,0,0,1-.6,1,3,3,0,0,1-.93.74,2.73,2.73,0,0,1-1.27.29h-3v4.29Zm1.41-5.58h2.7A1.93,1.93,0,0,0,25,7a1.78,1.78,0,0,0,.53-1.37A1.82,1.82,0,0,0,25,4.24a1.89,1.89,0,0,0-1.37-.51h-2.7V7.49Zm8.57,5.58V2.44H33.9a3.38,3.38,0,0,1,1.29.23,2.83,2.83,0,0,1,1,.62,2.59,2.59,0,0,1,.59.9,2.9,2.9,0,0,1,.2,1.07,2.78,2.78,0,0,1-.3,1.24,2.39,2.39,0,0,1-1,1,2.52,2.52,0,0,1,1.13,1.08A2.92,2.92,0,0,1,37.1,10a3.45,3.45,0,0,1-.19,1.13,3,3,0,0,1-.57,1,3,3,0,0,1-.95.71,3,3,0,0,1-1.32.28Zm1.41-1.26h2.88a1.93,1.93,0,0,0,1.43-.48A1.85,1.85,0,0,0,35.69,10a1.67,1.67,0,0,0-.6-1.33,1.93,1.93,0,0,0-.62-.36,2.16,2.16,0,0,0-.72-.12H30.9v3.66Zm0-4.92h2.84a2.34,2.34,0,0,0,.68-.1,1.66,1.66,0,0,0,.57-.3,1.52,1.52,0,0,0,.54-1.2A1.33,1.33,0,0,0,35,4.09a2.44,2.44,0,0,0-1.37-.36H30.9V6.89Zm9.16,6.18V2.44h1.41v8.13h.12l1.36-2.12,3.87-6h1.37V13.07H46.77V4.83h-.12L45.12,7.3,41.4,13.07ZM51.33,9.69V5.8a3.24,3.24,0,0,1,.31-1.44,3.46,3.46,0,0,1,2-1.78,4.45,4.45,0,0,1,1.46-.24,5.57,5.57,0,0,1,1.62.23,3.89,3.89,0,0,1,1.36.72l-.71,1.1a3,3,0,0,0-1-.56,4,4,0,0,0-1.22-.2,2.88,2.88,0,0,0-.88.14,2.19,2.19,0,0,0-.77.43,2.12,2.12,0,0,0-.55.76,2.75,2.75,0,0,0-.21,1.13V9.43A2.66,2.66,0,0,0,53,10.55a2.13,2.13,0,0,0,.56.76,2.28,2.28,0,0,0,.76.43,2.66,2.66,0,0,0,.84.14,4.67,4.67,0,0,0,1.23-.17,3,3,0,0,0,1.12-.57l.68,1.09a4.34,4.34,0,0,1-1.28.67,5.15,5.15,0,0,1-1.71.28,4.53,4.53,0,0,1-1.47-.24,3.53,3.53,0,0,1-1.22-.69,3.26,3.26,0,0,1-.82-1.1,3.42,3.42,0,0,1-.3-1.47Zm9.52,3.38V2.44h1.41V7h5V2.44h1.44V13.07H67.25V8.34h-5v4.73Zm11,0V2.44h1.41V6.84h3a2.95,2.95,0,0,1,2.24,1,3.16,3.16,0,0,1,.82,2.11,3.6,3.6,0,0,1-.18,1.13,3.05,3.05,0,0,1-.55,1,2.81,2.81,0,0,1-.93.73,3,3,0,0,1-1.34.28Zm1.41-1.29H76a1.94,1.94,0,0,0,1.37-.49,1.76,1.76,0,0,0,.53-1.36,1.85,1.85,0,0,0-.15-.76,1.63,1.63,0,0,0-.41-.57,1.71,1.71,0,0,0-.62-.35,2.53,2.53,0,0,0-.77-.11H73.26v3.64Zm7.24,1.29V2.44h1.41V13.07Zm4.64,0V2.44h1.41v8.13h.12L88,8.44l3.88-6h1.37V13.07H91.87V4.83h-.11L90.22,7.3l-3.73,5.77ZM86.83,0H88a.89.89,0,0,0,.09.3,1,1,0,0,0,.22.29,1.09,1.09,0,0,0,.34.22,1.13,1.13,0,0,0,.45.09,1.29,1.29,0,0,0,.49-.09,1,1,0,0,0,.35-.22A.92.92,0,0,0,90.09.3a.73.73,0,0,0,.07-.3h1.13a3.79,3.79,0,0,1-.14.66,1.82,1.82,0,0,1-.36.64,2,2,0,0,1-.67.49,2.51,2.51,0,0,1-1.06.2A2.54,2.54,0,0,1,88,1.79a2,2,0,0,1-.68-.49,2,2,0,0,1-.37-.64A2.06,2.06,0,0,1,86.83,0Zm19.26,13.07V2.44h1.41v9.37h5V2.44h1.44v9.33h.88v3.59H113.4V13.07Zm11.31,0V2.44h7.08V3.73h-5.67V7.09h4.86V8.39h-4.86v3.42h5.67v1.26Zm9.88,0V2.44h1.41V7h5V2.44h1.44V13.07h-1.44V8.34h-5v4.73Zm10.34-9.34V2.44h7.53V3.73h-3v9.34h-1.44V3.73Zm10,9.34V2.44H152a2.91,2.91,0,0,1,1.33.29,2.87,2.87,0,0,1,.94.74,3.16,3.16,0,0,1,.56,1,3.58,3.58,0,0,1,.19,1.14,3.21,3.21,0,0,1-.21,1.13,3.47,3.47,0,0,1-.6,1,3,3,0,0,1-.93.74,2.73,2.73,0,0,1-1.27.29h-3v4.29Zm1.41-5.58h2.7a1.93,1.93,0,0,0,1.37-.5,1.78,1.78,0,0,0,.53-1.37,1.82,1.82,0,0,0-.53-1.38,1.89,1.89,0,0,0-1.37-.51h-2.7Z" style="fill: #09090a;fill-rule: evenodd"/>
        <path d="M0,9.69V5.8A3.25,3.25,0,0,1,.31,4.36a3.46,3.46,0,0,1,2-1.78,4.45,4.45,0,0,1,1.46-.24,5.57,5.57,0,0,1,1.62.23,3.89,3.89,0,0,1,1.36.72l-.71,1.1a3,3,0,0,0-1-.56,4,4,0,0,0-1.22-.2,2.88,2.88,0,0,0-.88.14,2.19,2.19,0,0,0-.77.43A2.12,2.12,0,0,0,1.62,5a2.75,2.75,0,0,0-.21,1.13V9.43a2.66,2.66,0,0,0,.22,1.12,2.13,2.13,0,0,0,.56.76,2.28,2.28,0,0,0,.76.43,2.66,2.66,0,0,0,.84.14A4.67,4.67,0,0,0,5,11.71a3,3,0,0,0,1.12-.57l.68,1.09a4.35,4.35,0,0,1-1.28.67,5.15,5.15,0,0,1-1.71.28,4.53,4.53,0,0,1-1.47-.24,3.53,3.53,0,0,1-1.22-.69,3.26,3.26,0,0,1-.82-1.1A3.41,3.41,0,0,1,0,9.69Zm9.62,3.38V2.44H16.7V3.73H11V7.09h4.86V8.39H11v3.42H16.7v1.26Zm9.88,0V2.44h4.4a2.91,2.91,0,0,1,1.33.29,2.87,2.87,0,0,1,.94.74,3.16,3.16,0,0,1,.56,1,3.58,3.58,0,0,1,.19,1.14,3.21,3.21,0,0,1-.21,1.13,3.47,3.47,0,0,1-.6,1,3,3,0,0,1-.93.74,2.73,2.73,0,0,1-1.27.29h-3v4.29Zm1.41-5.58h2.7A1.93,1.93,0,0,0,25,7a1.78,1.78,0,0,0,.53-1.37A1.82,1.82,0,0,0,25,4.24a1.89,1.89,0,0,0-1.37-.51h-2.7V7.49Zm8.57,5.58V2.44H33.9a3.38,3.38,0,0,1,1.29.23,2.83,2.83,0,0,1,1,.62,2.59,2.59,0,0,1,.59.9,2.9,2.9,0,0,1,.2,1.07,2.78,2.78,0,0,1-.3,1.24,2.39,2.39,0,0,1-1,1,2.52,2.52,0,0,1,1.13,1.08A2.92,2.92,0,0,1,37.1,10a3.45,3.45,0,0,1-.19,1.13,3,3,0,0,1-.57,1,3,3,0,0,1-.95.71,3,3,0,0,1-1.32.28Zm1.41-1.26h2.88a1.93,1.93,0,0,0,1.43-.48A1.85,1.85,0,0,0,35.69,10a1.67,1.67,0,0,0-.6-1.33,1.93,1.93,0,0,0-.62-.36,2.16,2.16,0,0,0-.72-.12H30.9v3.66Zm0-4.92h2.84a2.34,2.34,0,0,0,.68-.1,1.66,1.66,0,0,0,.57-.3,1.52,1.52,0,0,0,.54-1.2A1.33,1.33,0,0,0,35,4.09a2.44,2.44,0,0,0-1.37-.36H30.9V6.89Zm9.16,6.18V2.44h1.41v8.13h.12l1.36-2.12,3.87-6h1.37V13.07H46.77V4.83h-.12L45.12,7.3,41.4,13.07ZM51.33,9.69V5.8a3.24,3.24,0,0,1,.31-1.44,3.46,3.46,0,0,1,2-1.78,4.45,4.45,0,0,1,1.46-.24,5.57,5.57,0,0,1,1.62.23,3.89,3.89,0,0,1,1.36.72l-.71,1.1a3,3,0,0,0-1-.56,4,4,0,0,0-1.22-.2,2.88,2.88,0,0,0-.88.14,2.19,2.19,0,0,0-.77.43,2.12,2.12,0,0,0-.55.76,2.75,2.75,0,0,0-.21,1.13V9.43A2.66,2.66,0,0,0,53,10.55a2.13,2.13,0,0,0,.56.76,2.28,2.28,0,0,0,.76.43,2.66,2.66,0,0,0,.84.14,4.67,4.67,0,0,0,1.23-.17,3,3,0,0,0,1.12-.57l.68,1.09a4.34,4.34,0,0,1-1.28.67,5.15,5.15,0,0,1-1.71.28,4.53,4.53,0,0,1-1.47-.24,3.53,3.53,0,0,1-1.22-.69,3.26,3.26,0,0,1-.82-1.1,3.42,3.42,0,0,1-.3-1.47Zm9.52,3.38V2.44h1.41V7h5V2.44h1.44V13.07H67.25V8.34h-5v4.73Zm11,0V2.44h1.41V6.84h3a2.95,2.95,0,0,1,2.24,1,3.16,3.16,0,0,1,.82,2.11,3.6,3.6,0,0,1-.18,1.13,3.05,3.05,0,0,1-.55,1,2.81,2.81,0,0,1-.93.73,3,3,0,0,1-1.34.28Zm1.41-1.29H76a1.94,1.94,0,0,0,1.37-.49,1.76,1.76,0,0,0,.53-1.36,1.85,1.85,0,0,0-.15-.76,1.63,1.63,0,0,0-.41-.57,1.71,1.71,0,0,0-.62-.35,2.53,2.53,0,0,0-.77-.11H73.26v3.64Zm7.24,1.29V2.44h1.41V13.07Zm4.64,0V2.44h1.41v8.13h.12L88,8.44l3.88-6h1.37V13.07H91.87V4.83h-.11L90.22,7.3l-3.73,5.77ZM86.83,0H88a.89.89,0,0,0,.09.3,1,1,0,0,0,.22.29,1.09,1.09,0,0,0,.34.22,1.13,1.13,0,0,0,.45.09,1.29,1.29,0,0,0,.49-.09,1,1,0,0,0,.35-.22A.92.92,0,0,0,90.09.3a.73.73,0,0,0,.07-.3h1.13a3.79,3.79,0,0,1-.14.66,1.82,1.82,0,0,1-.36.64,2,2,0,0,1-.67.49,2.51,2.51,0,0,1-1.06.2A2.54,2.54,0,0,1,88,1.79a2,2,0,0,1-.68-.49,2,2,0,0,1-.37-.64A2.06,2.06,0,0,1,86.83,0Zm19.26,13.07V2.44h1.41v9.37h5V2.44h1.44v9.33h.88v3.59H113.4V13.07Zm11.31,0V2.44h7.08V3.73h-5.67V7.09h4.86V8.39h-4.86v3.42h5.67v1.26Zm9.88,0V2.44h1.41V7h5V2.44h1.44V13.07h-1.44V8.34h-5v4.73Zm10.34-9.34V2.44h7.53V3.73h-3v9.34h-1.44V3.73Zm10,9.34V2.44H152a2.91,2.91,0,0,1,1.33.29,2.87,2.87,0,0,1,.94.74,3.16,3.16,0,0,1,.56,1,3.58,3.58,0,0,1,.19,1.14,3.21,3.21,0,0,1-.21,1.13,3.47,3.47,0,0,1-.6,1,3,3,0,0,1-.93.74,2.73,2.73,0,0,1-1.27.29h-3v4.29Zm1.41-5.58h2.7a1.93,1.93,0,0,0,1.37-.5,1.78,1.78,0,0,0,.53-1.37,1.82,1.82,0,0,0-.53-1.38,1.89,1.89,0,0,0-1.37-.51h-2.7Z" style="fill: #09090a;fill-rule: evenodd"/>
      </g>
    </g>
  </g>
</svg>
