<svg xmlns="http://www.w3.org/2000/svg" viewBox="0 0 59.96 117.32">
  <g id="Слой_2" data-name="Слой 2">
    <g id="_1" data-name="1">
      <g>
        <path d="M35.19,23.42A27.42,27.42,0,0,1,57.06,49.23C54.72,46.75,50,41.88,45,37.59A167.3,167.3,0,0,0,30,26.34,153.09,153.09,0,0,0,14.74,37.59C9.92,41.72,5.33,46.4,2.92,48.95A27.41,27.41,0,0,1,24.78,23.42l-2.94-20L30,0l8.15,3.38-2.94,20Zm-33,74.53,19.26,19.37V92.14a19,19,0,0,1,1-34.32V75.07L30,78.21l7.57-3.14V57.82a19,19,0,0,1,1,34.32v25.18h0L57.8,97.95A12.69,12.69,0,0,1,60,79.2L58.55,52.8A174.76,174.76,0,0,0,45,39.54,168.33,168.33,0,0,0,30,28.29h0A168.25,168.25,0,0,0,15,39.54,174.77,174.77,0,0,0,1.41,52.8L0,79.22A12.67,12.67,0,0,1,5.32,89.55a12.63,12.63,0,0,1-2.89,8.06c-.17.22-.27.34-.27.34ZM32.91,37.28v2.18a5.62,5.62,0,1,1-5.85,0V37.28a7.58,7.58,0,1,0,5.85,0Zm-1.95-2H29v8h2Z" style="fill: #09090a;fill-rule: evenodd"/>
        <path d="M35.19,23.42A27.42,27.42,0,0,1,57.06,49.23C54.72,46.75,50,41.88,45,37.59A167.3,167.3,0,0,0,30,26.34,153.09,153.09,0,0,0,14.74,37.59C9.92,41.72,5.33,46.4,2.92,48.95A27.41,27.41,0,0,1,24.78,23.42l-2.94-20L30,0l8.15,3.38-2.94,20Zm-33,74.53,19.26,19.37V92.14a19,19,0,0,1,1-34.32V75.07L30,78.21l7.57-3.14V57.82a19,19,0,0,1,1,34.32v25.18h0L57.8,97.95A12.69,12.69,0,0,1,60,79.2L58.55,52.8A174.76,174.76,0,0,0,45,39.54,168.33,168.33,0,0,0,30,28.29h0A168.25,168.25,0,0,0,15,39.54,174.77,174.77,0,0,0,1.41,52.8L0,79.22A12.67,12.67,0,0,1,5.32,89.55a12.63,12.63,0,0,1-2.89,8.06c-.17.22-.27.34-.27.34ZM32.91,37.28v2.18a5.62,5.62,0,1,1-5.85,0V37.28a7.58,7.58,0,1,0,5.85,0Zm-1.95-2H29v8h2Z" style="fill: #09090a;fill-rule: evenodd"/>
      </g>
    </g>
  </g>
</svg>
