<svg xmlns="http://www.w3.org/2000/svg" viewBox="0 0 221.99 39.26">
  <title>Ресурс 2</title>
  <g id="Слой_2" data-name="Слой 2">
    <g id="_1" data-name="1">
      <g>
        <g>
          <path d="M0,6.9V38.85H4.62V11.47H18.15V38.85h4.66V6.9Zm27.51,0v32h4.66V28.2h7c6.9,0,10.38-5.3,10.38-10.65S46.12,6.86,39.22,6.86Zm4.66,16.77V11.52h7c3.88,0,5.8,3,5.8,6.08s-1.92,6-5.8,6Zm48.45-.78A11.7,11.7,0,0,1,69,34.6a11.47,11.47,0,0,1-8.18-3.47,11.7,11.7,0,0,1,0-16.55A11.47,11.47,0,0,1,69,11.11,11.7,11.7,0,0,1,80.62,22.85Zm-27.93,0a16.62,16.62,0,0,0,4.75,11.56,16.17,16.17,0,0,0,23.08,0,16.44,16.44,0,0,0,0-23.13,16.17,16.17,0,0,0-23.08,0A16.62,16.62,0,0,0,52.7,22.85Zm42-6.54,8.36,12.43h2.61l8.36-12.43V38.85h4.57v-32H115L104.44,22.4,93.88,6.86H90.13v32h4.62V16.32Zm33.87,8.87H143.1V20.52H128.61v-9h14.81V6.9H124V38.85h19.52V34.23H128.61v-9ZM161.48,39V11.52h9.64V6.86H147.17v4.66h9.69V39Zm18.05-13.8H194V20.52H179.53v-9h14.81V6.9H174.87V38.85h19.52V34.23H179.53Z" style="fill: #09090a;fill-rule: evenodd"/>
          <polygon points="217.38 38.85 217.38 16.5 201.93 38.85 198.27 38.85 198.27 6.86 202.84 6.86 202.84 29.39 218.43 6.86 221.99 6.81 221.99 38.85 217.38 38.85" style="fill: #09090a;fill-rule: evenodd"/>
          <rect x="206.21" width="8.85" height="4.57" style="fill: #09090a"/>
        </g>
        <g>
          <path d="M0,6.9V38.85H4.62V11.47H18.15V38.85h4.66V6.9Zm27.51,0v32h4.66V28.2h7c6.9,0,10.38-5.3,10.38-10.65S46.12,6.86,39.22,6.86Zm4.66,16.77V11.52h7c3.88,0,5.8,3,5.8,6.08s-1.92,6-5.8,6Zm48.45-.78A11.7,11.7,0,0,1,69,34.6a11.47,11.47,0,0,1-8.18-3.47,11.7,11.7,0,0,1,0-16.55A11.47,11.47,0,0,1,69,11.11,11.7,11.7,0,0,1,80.62,22.85Zm-27.93,0a16.62,16.62,0,0,0,4.75,11.56,16.17,16.17,0,0,0,23.08,0,16.44,16.44,0,0,0,0-23.13,16.17,16.17,0,0,0-23.08,0A16.62,16.62,0,0,0,52.7,22.85Zm42-6.54,8.36,12.43h2.61l8.36-12.43V38.85h4.57v-32H115L104.44,22.4,93.88,6.86H90.13v32h4.62V16.32Zm33.87,8.87H143.1V20.52H128.61v-9h14.81V6.9H124V38.85h19.52V34.23H128.61v-9ZM161.48,39V11.52h9.64V6.86H147.17v4.66h9.69V39Zm18.05-13.8H194V20.52H179.53v-9h14.81V6.9H174.87V38.85h19.52V34.23H179.53Z" style="fill: #09090a;fill-rule: evenodd"/>
          <polygon points="217.38 38.85 217.38 16.5 201.93 38.85 198.27 38.85 198.27 6.86 202.84 6.86 202.84 29.39 218.43 6.86 221.99 6.81 221.99 38.85 217.38 38.85" style="fill: #09090a;fill-rule: evenodd"/>
          <rect x="206.21" width="8.85" height="4.57" style="fill: #09090a"/>
        </g>
      </g>
    </g>
  </g>
</svg>
