<?xml version="1.0" encoding="utf-8"?>
<!-- Generator: Adobe Illustrator 21.1.0, SVG Export Plug-In . SVG Version: 6.00 Build 0)  -->
<svg version="1.1" id="Слой_1" xmlns="http://www.w3.org/2000/svg" xmlns:xlink="http://www.w3.org/1999/xlink" x="0px" y="0px"
	 viewBox="0 0 16 16" style="enable-background:new 0 0 16 16;" xml:space="preserve">
<style type="text/css">
	.st0{fill-rule:evenodd;clip-rule:evenodd;fill:#DB872D;}
</style>
<path class="st0" d="M8.9,3.2c1.7,0.3,3,1.8,3,3.5c-0.3-0.3-1-1-1.7-1.6c-1-0.8-2.1-1.5-2.1-1.5S7,4.3,6,5.1
	C5.4,5.7,4.7,6.3,4.4,6.7c0.1-1.7,1.4-3.2,3-3.5L7,0.5L8.2,0l1.1,0.5L8.9,3.2L8.9,3.2z M4.3,13.4L7,16l0-3.4
	c-0.9-0.4-1.4-1.3-1.4-2.3c0-1.1,0.7-2,1.6-2.4v2.4l1,0.4l1-0.4V7.9c0.9,0.4,1.6,1.3,1.6,2.4c0,1-0.6,1.9-1.4,2.3l0,3.4l0,0l2.7-2.6
	c-0.3-0.3-0.4-0.7-0.4-1.1c0-0.6,0.3-1.1,0.7-1.4l-0.2-3.6c0,0-0.9-1-1.9-1.8c-1-0.8-2.1-1.5-2.1-1.5l0,0l0,0l0,0
	c0,0-1.1,0.7-2.1,1.5c-1,0.8-1.9,1.8-1.9,1.8L4,10.8c0.4,0.3,0.7,0.8,0.7,1.4C4.7,12.6,4.6,13,4.3,13.4C4.3,13.3,4.3,13.4,4.3,13.4
	L4.3,13.4z M8.6,5.1v0.3c0.1,0.1,0.2,0.1,0.2,0.2C8.9,5.7,8.9,5.9,8.9,6c0,0.2-0.1,0.4-0.2,0.5C8.6,6.7,8.4,6.8,8.2,6.8
	c-0.2,0-0.4-0.1-0.6-0.2C7.5,6.4,7.4,6.2,7.4,6c0-0.2,0.1-0.3,0.1-0.4c0.1-0.1,0.1-0.2,0.2-0.2V5.1C7.6,5.2,7.4,5.3,7.3,5.4
	C7.2,5.6,7.1,5.8,7.1,6c0,0.3,0.1,0.5,0.3,0.7C7.6,7,7.9,7.1,8.2,7.1c0.3,0,0.6-0.1,0.7-0.3C9.1,6.6,9.2,6.3,9.2,6
	c0-0.2-0.1-0.4-0.2-0.6C8.9,5.3,8.8,5.2,8.6,5.1L8.6,5.1z M8.3,4.8H8v1.1h0.3V4.8z"/>
</svg>
