<svg xmlns="http://www.w3.org/2000/svg" viewBox="0 0 370.85 512">
  <title>Ресурс 3</title>
  <g id="Слой_2" data-name="Слой 2">
    <g id="Layer_1" data-name="Layer 1">
      <path d="M185.43,0C83.18,0,0,83.18,0,185.43c0,126.89,165.94,313.17,173,321a16.7,16.7,0,0,0,24.85,0c7.07-7.87,173-194.15,173-321C370.85,83.18,287.67,0,185.43,0Zm0,278.72a93.29,93.29,0,1,1,93.29-93.29A93.4,93.4,0,0,1,185.43,278.72Z" style="fill: #db872d"/>
      <path d="M192.75,135.23a38.14,38.14,0,0,1,30.79,35.72c-3.29-3.42-10-10.17-17-16.1a235.29,235.29,0,0,0-21.11-15.56A215.4,215.4,0,0,0,164,154.84c-6.79,5.72-13.24,12.2-16.64,15.72a38.14,38.14,0,0,1,30.77-35.33L174,107.5l11.47-4.68,11.47,4.68-4.14,27.73ZM146.27,238.37l27.1,26.81V230.34a26.07,26.07,0,0,1,1.41-47.5v23.88l10.65,4.34,10.65-4.34V182.84a26.07,26.07,0,0,1,1.42,47.49v34.85h0l27.09-26.81a17.36,17.36,0,0,1,3-25.94l-2-36.54a244.07,244.07,0,0,0-19.14-18.35A236.7,236.7,0,0,0,185.43,142h0a236.73,236.73,0,0,0-21.08,15.56,244,244,0,0,0-19.14,18.35l-2,36.56a17.36,17.36,0,0,1,3.42,25.45c-.23.3-.38.47-.38.47Zm43.27-84v3a7.88,7.88,0,0,1,2.38,2.21,7.68,7.68,0,0,1-.91,9.94,8,8,0,0,1-11.19,0,7.69,7.69,0,0,1-.87-10,7.86,7.86,0,0,1,2.35-2.16v-3a10.62,10.62,0,0,0-4.59,3.62,10.34,10.34,0,0,0,1.17,13.44,10.79,10.79,0,0,0,15.07,0,10.34,10.34,0,0,0,1.22-13.38,10.6,10.6,0,0,0-4.63-3.68Zm-2.74-2.7h-2.75v11.11h2.75Z" style="fill: #db872d;fill-rule: evenodd"/>
    </g>
  </g>
</svg>
