<?xml version="1.0" encoding="iso-8859-1"?>
<!-- Generator: Adobe Illustrator 19.0.0, SVG Export Plug-In . SVG Version: 6.00 Build 0)  -->
<svg version="1.1" id="Capa_1" xmlns="http://www.w3.org/2000/svg" xmlns:xlink="http://www.w3.org/1999/xlink" x="0px" y="0px"
	 viewBox="0 0 511.999 511.999" style="enable-background:new 0 0 511.999 511.999;" xml:space="preserve">
<g>
	<g>
		<path d="M481.547,332.994c-28.621-28.606-71.324-37.814-109.167-24.375l-21.035-22.717c-0.487,0.826-1.359,1.33-1.671,2.268
			c-4.503,13.522-8.685,31.01-18.68,41.005l-31.801,31.79l9.578,11.264c-13.454,37.829-4.245,80.547,24.375,109.167
			c31.197,31.195,79.083,39.285,119.152,20.247c9.36-4.463,11.461-16.839,4.157-24.14L417.955,439
			c-5.859-5.888-5.859-15.31,0-21.198c5.854-5.855,15.342-5.855,21.197,0l38.502,38.502c7.225,7.256,19.657,5.247,24.14-4.157
			C520.855,412.048,512.716,364.162,481.547,332.994z"/>
	</g>
</g>
<g>
	<g>
		<path d="M203.228,139.799c13.454-37.843,4.245-80.561-24.375-109.182C147.685-0.567,99.799-8.706,59.701,10.369
			c-9.36,4.461-11.461,16.838-4.157,24.14l38.502,38.502C99.9,78.853,99.9,88.383,94.06,94.21
			c-5.841,5.841-15.342,5.856-21.212,0.015L34.346,55.708c-7.225-7.256-19.657-5.247-24.14,4.157
			C-8.856,99.963-0.717,147.849,30.451,179.017c28.606,28.621,71.324,37.829,109.182,24.375l11.176,9.177l31.785-31.796
			c10.068-10.068,27.034-14.032,41.005-18.68c0.935-0.311,1.44-1.178,2.266-1.663L203.228,139.799z"/>
	</g>
</g>
<g>
	<g>
		<path d="M498.472,55.695l-42.396-42.397c-16.982-16.982-46.642-16.982-63.594,0l-125.095,125.08
			c-2.684,2.684-4.392,6.52-4.392,10.599c0,0,0.004,0.015,0.004,0.022l-0.004,0.022c0,18.871-12.019,35.56-29.923,41.518
			l-23.424,7.803c-0.626,0.211-5.107,2.882-5.855,3.631l-42.396,42.411c-5.855,5.855-5.855,15.343,0,21.198l84.793,84.793
			c5.855,5.855,15.343,5.855,21.198,0l42.411-42.396c1.53-1.53,3.058-4.159,3.631-5.855l7.803-23.424
			c5.958-17.904,22.662-29.923,41.562-29.923c3.911,0,7.775-1.568,10.599-4.392l125.08-125.08
			C516.007,101.769,516.08,73.302,498.472,55.695z"/>
	</g>
</g>
<g>
	<g>
		<path d="M150.796,297.378l-93.396,93.47c-0.027,0.027-1.576,1.859-1.596,1.889L2.794,466.945
			c-4.26,5.958-3.587,14.127,1.596,19.309l21.197,21.198c5.175,5.173,13.333,5.868,19.309,1.596l74.208-53.01
			c0.02-0.015,1.87-1.577,1.889-1.596l93.396-93.47L150.796,297.378z M37.812,477.281l-3.25-3.25l35.355-49.467l17.362,17.362
			L37.812,477.281z"/>
	</g>
</g>
<g>
</g>
<g>
</g>
<g>
</g>
<g>
</g>
<g>
</g>
<g>
</g>
<g>
</g>
<g>
</g>
<g>
</g>
<g>
</g>
<g>
</g>
<g>
</g>
<g>
</g>
<g>
</g>
<g>
</g>
</svg>
