<svg id="Layer_1" data-name="Layer 1" xmlns="http://www.w3.org/2000/svg" viewBox="0 0 229.4 208.22"><title>logo-contur-handle-best</title><circle cx="104.11" cy="104.11" r="104.11" style="fill:#231f20"/><path d="M381.44,431.68a96,96,0,1,1,6.5-34.19" transform="translate(-187.78 -292.84)" style="fill:none;stroke:#fff;stroke-linecap:round;stroke-linejoin:round;stroke-width:8.16761302947998px"/><path d="M306.62,372.52l-.1-.14a10.34,10.34,0,0,0-1-2,3.72,3.72,0,0,1,1.63-4.39,8.55,8.55,0,0,0,4.58-5.49h0a8.59,8.59,0,0,0-6-10.5l-18.29-4.93a8.59,8.59,0,0,0-10.5,6h0a8.56,8.56,0,0,0,1.46,7.41,3.61,3.61,0,0,1-1,4.25,10.18,10.18,0,0,0-5.29,6.46l-7.17,26.63a10.13,10.13,0,0,0,.28,6.15l-.2-.05q.27.37.48.73t.44.86c1,2.43,0,4.33-2.78,5.74l.09,0A8.51,8.51,0,0,0,260,414h0a8.59,8.59,0,0,0,6,10.5L279.15,428l-2.37.5c-21.75,4.74-38.26,11.93-36.88,16.06-.19,1.07-1.77,7.54-1.5,8.35,1.53,4.55,22.19,4,46.16-1.21S326.73,438.59,325.2,434c-.23-.68-5.59-5.66-6.52-6.61-1-3-11.1-3.56-24.85-1.85a8.49,8.49,0,0,0,.95-2.21h0a8.57,8.57,0,0,0-1.69-7.7,3.54,3.54,0,0,1,1-3.82,10.18,10.18,0,0,0,5.58-6.6l2.25-8.34L402.08,426c16.5,4.8,19.77-10.17,3.07-14.19L304.43,387.55l2.41-8.93a10.12,10.12,0,0,0-.27-6.12Z" transform="translate(-187.78 -292.84)" style="fill:#fff;stroke:#231f20;stroke-miterlimit:10;stroke-width:2px;fill-rule:evenodd"/><path d="M366.81,423.84a79.72,79.72,0,1,1,4.68-28.51" transform="translate(-187.78 -292.84)" style="fill:none;stroke:#df1c23;stroke-linecap:round;stroke-linejoin:round;stroke-width:8.16761302947998px"/></svg>